<svg xmlns="http://www.w3.org/2000/svg" viewBox="0 0 64 64">
  <rect width="64" height="64" rx="14" fill="#f6ebcd"/>
  <path d="M17 31c0-7 6-13 15-13s15 6 15 13c0 3-2 5-5 5H22c-3 0-5-2-5-5Z" fill="#f6c3c0"/>
  <path d="M21 35h22l-4 19H25L21 35Z" fill="#5b2622"/>
  <path d="M26 39l2 12M32 39v12M38 39l-2 12" fill="none" stroke="#f6ebcd" stroke-width="2.4" stroke-linecap="round"/>
  <path d="M22 32c2 2 4 2 6 0s4-2 6 0 4 2 6 0" fill="none" stroke="#4d1f18" stroke-width="2.4" stroke-linecap="round"/>
  <circle cx="25" cy="25" r="2" fill="#5b2622"/>
  <circle cx="32" cy="22" r="2" fill="#fff8e8"/>
  <circle cx="39" cy="26" r="2" fill="#5b2622"/>
  <path d="M32 12c2 3 1 5-1 7" fill="none" stroke="#4d1f18" stroke-width="2.8" stroke-linecap="round"/>
</svg>
